<svg xmlns="http://www.w3.org/2000/svg" viewBox="0 0 926 926" width="926" height="926" role="img" aria-label="Logo vectorizado">
  <rect width="926" height="926" fill="#FFFFFF"/>
  <path fill="#000000" fill-rule="evenodd" d="M 344.0 72.0 L 328.0 79.0 L 325.0 79.0 L 301.0 91.0 L 278.0 107.0 L 264.0 119.0 L 246.0 139.0 L 229.0 164.0 L 214.0 197.0 L 211.0 210.0 L 209.0 213.0 L 208.0 222.0 L 206.0 224.0 L 199.0 225.0 L 185.0 230.0 L 183.0 232.0 L 180.0 232.0 L 149.0 249.0 L 126.0 267.0 L 106.0 288.0 L 91.0 309.0 L 78.0 333.0 L 71.0 351.0 L 65.0 372.0 L 61.0 396.0 L 60.0 418.0 L 63.0 451.0 L 65.0 454.0 L 65.0 459.0 L 73.0 486.0 L 88.0 517.0 L 103.0 539.0 L 127.0 565.0 L 121.0 602.0 L 121.0 629.0 L 123.0 647.0 L 128.0 669.0 L 133.0 685.0 L 146.0 713.0 L 156.0 729.0 L 173.0 750.0 L 191.0 767.0 L 208.0 780.0 L 224.0 790.0 L 245.0 800.0 L 269.0 808.0 L 274.0 808.0 L 277.0 810.0 L 309.0 814.0 L 347.0 813.0 L 364.0 810.0 L 379.0 805.0 L 384.0 805.0 L 403.0 821.0 L 433.0 840.0 L 446.0 846.0 L 449.0 846.0 L 451.0 848.0 L 454.0 848.0 L 456.0 850.0 L 485.0 858.0 L 508.0 861.0 L 540.0 861.0 L 561.0 858.0 L 581.0 853.0 L 603.0 845.0 L 631.0 830.0 L 651.0 815.0 L 669.0 798.0 L 684.0 780.0 L 697.0 760.0 L 709.0 735.0 L 716.0 714.0 L 718.0 703.0 L 720.0 701.0 L 735.0 697.0 L 758.0 687.0 L 778.0 675.0 L 795.0 662.0 L 815.0 642.0 L 832.0 620.0 L 845.0 597.0 L 857.0 567.0 L 857.0 562.0 L 862.0 547.0 L 865.0 524.0 L 865.0 495.0 L 862.0 473.0 L 852.0 438.0 L 839.0 411.0 L 824.0 388.0 L 799.0 361.0 L 799.0 354.0 L 804.0 330.0 L 804.0 290.0 L 799.0 261.0 L 797.0 258.0 L 794.0 244.0 L 777.0 208.0 L 757.0 180.0 L 736.0 159.0 L 716.0 144.0 L 699.0 134.0 L 672.0 122.0 L 643.0 114.0 L 620.0 111.0 L 579.0 112.0 L 554.0 117.0 L 542.0 121.0 L 528.0 108.0 L 500.0 89.0 L 472.0 76.0 L 450.0 69.0 L 435.0 66.0 L 427.0 66.0 L 420.0 64.0 L 386.0 64.0 L 370.0 66.0 Z M 606.0 437.0 L 666.0 471.0 L 673.0 476.0 L 678.0 485.0 L 678.0 671.0 L 675.0 695.0 L 668.0 719.0 L 653.0 748.0 L 641.0 763.0 L 623.0 780.0 L 597.0 797.0 L 564.0 809.0 L 538.0 813.0 L 499.0 812.0 L 473.0 805.0 L 446.0 792.0 L 435.0 784.0 L 435.0 781.0 L 516.0 733.0 L 589.0 692.0 L 600.0 682.0 L 603.0 675.0 L 603.0 438.0 Z M 453.0 120.0 L 483.0 135.0 L 491.0 141.0 L 491.0 144.0 L 337.0 233.0 L 330.0 238.0 L 324.0 246.0 L 322.0 253.0 L 322.0 487.0 L 319.0 488.0 L 259.0 453.0 L 251.0 446.0 L 249.0 442.0 L 249.0 245.0 L 252.0 226.0 L 254.0 223.0 L 257.0 209.0 L 269.0 184.0 L 287.0 160.0 L 311.0 139.0 L 335.0 125.0 L 358.0 117.0 L 385.0 112.0 L 418.0 112.0 L 436.0 115.0 L 439.0 117.0 L 444.0 117.0 Z M 557.0 573.0 L 557.0 649.0 L 555.0 655.0 L 549.0 661.0 L 391.0 752.0 L 380.0 757.0 L 356.0 764.0 L 339.0 766.0 L 311.0 766.0 L 294.0 764.0 L 278.0 760.0 L 272.0 757.0 L 268.0 757.0 L 238.0 742.0 L 215.0 724.0 L 196.0 702.0 L 179.0 671.0 L 172.0 648.0 L 169.0 629.0 L 169.0 604.0 L 170.0 599.0 L 175.0 598.0 L 334.0 690.0 L 346.0 691.0 L 374.0 677.0 L 400.0 662.0 L 401.0 660.0 L 426.0 647.0 L 441.0 637.0 L 535.0 584.0 L 554.0 572.0 Z M 196.0 278.0 L 200.0 278.0 L 202.0 280.0 L 202.0 464.0 L 206.0 474.0 L 213.0 481.0 L 226.0 489.0 L 242.0 497.0 L 413.0 597.0 L 411.0 601.0 L 395.0 609.0 L 350.0 636.0 L 340.0 638.0 L 325.0 631.0 L 298.0 614.0 L 287.0 609.0 L 258.0 591.0 L 238.0 581.0 L 235.0 578.0 L 178.0 546.0 L 161.0 533.0 L 143.0 514.0 L 131.0 497.0 L 121.0 477.0 L 111.0 446.0 L 108.0 421.0 L 109.0 396.0 L 116.0 366.0 L 128.0 340.0 L 147.0 314.0 L 170.0 293.0 Z M 578.0 288.0 L 585.0 287.0 L 595.0 291.0 L 605.0 298.0 L 630.0 311.0 L 756.0 385.0 L 767.0 394.0 L 781.0 409.0 L 799.0 436.0 L 806.0 451.0 L 814.0 477.0 L 817.0 498.0 L 816.0 533.0 L 808.0 563.0 L 796.0 588.0 L 777.0 613.0 L 760.0 629.0 L 742.0 641.0 L 728.0 648.0 L 725.0 647.0 L 725.0 484.0 L 724.0 459.0 L 721.0 453.0 L 715.0 446.0 L 523.0 335.0 L 513.0 328.0 L 515.0 324.0 Z M 756.0 293.0 L 756.0 327.0 L 752.0 328.0 L 601.0 239.0 L 590.0 234.0 L 577.0 234.0 L 521.0 265.0 L 373.0 352.0 L 369.0 351.0 L 369.0 276.0 L 370.0 271.0 L 375.0 265.0 L 531.0 175.0 L 554.0 165.0 L 575.0 160.0 L 615.0 159.0 L 641.0 163.0 L 667.0 172.0 L 692.0 186.0 L 701.0 193.0 L 721.0 213.0 L 736.0 234.0 L 748.0 259.0 Z M 461.0 355.0 L 467.0 356.0 L 554.0 405.0 L 557.0 408.0 L 556.0 518.0 L 465.0 570.0 L 461.0 570.0 L 425.0 549.0 L 375.0 522.0 L 369.0 517.0 L 369.0 407.0 Z"/>
</svg>
